<!--?xml version="1.0" standalone="no"?-->
              <svg id="sw-js-blob-svg" viewBox="0 0 100 100" xmlns="http://www.w3.org/2000/svg" version="1.1">
                    <defs> 
                        <linearGradient id="sw-gradient" x1="0" x2="1" y1="1" y2="0">
                            <stop id="stop1" stop-color="rgba(248, 117, 55, 1)" offset="0%"></stop>
                            <stop id="stop2" stop-color="rgba(251, 168, 31, 1)" offset="100%"></stop>
                        </linearGradient>
                    </defs>
                <path fill="url(#sw-gradient)" d="M20.5,-25.2C27,-19,33,-13,35.6,-5.3C38.2,2.4,37.3,11.8,33.2,19.3C29,26.9,21.5,32.7,13.6,34.4C5.6,36,-2.8,33.5,-11.7,30.8C-20.7,28.2,-30.1,25.5,-33.4,19.5C-36.7,13.4,-33.9,4,-32.5,-6C-31.1,-16,-31.1,-26.5,-25.9,-32.9C-20.7,-39.4,-10.4,-41.7,-1.7,-39.7C7,-37.7,14,-31.4,20.5,-25.2Z" width="100%" height="100%" transform="translate(50 50)" stroke-width="0" style="transition: all 0.3s ease 0s;"></path>
              </svg>